# xmcd
#
# Track frame offsets:
#	150
#	15895
#	32918
#	46972
#	65667
#	81053
#	103153
#	119775
#	131722
#	151984
#	171350
#	190158
#	204917
#	223159
#	241436
#	256361
#	278173
#	295257
#
# Disc length: 4309 seconds
#
# Revision: 2
# Processed by: cddbd v1.5.1PL0 Copyright (c) Steve Scherf et al.
# Submitted via: audiograbber 1.83.01
#
DISCID=0e10d312
DTITLE=Outlaws - In The Eye Of The Storm - Hurry Sundown
DYEAR=1979
DGENRE=Rock
TTITLE0=The lights are on (but nobody's home)
TTITLE1=Long Gone
TTITLE2=It's All Right
TTITLE3=Miracle Man
TTITLE4=Comin' Home
TTITLE5=Blueswater
TTITLE6=(Come On) Dance With Me
TTITLE7=Too Long Without Her
TTITLE8=I'll be Leaving Soon
TTITLE9=Gunsmoke
TTITLE10=Hearin' My Heart Talkin'
TTITLE11=So Afraid
TTITLE12=Holiday
TTITLE13=Hurry Sundown
TTITLE14=Gold And Lonesome
TTITLE15=Night Wines
TTITLE16=Heavenly Blues
TTITLE17=Man Of The Hour
EXTD=
EXTT0=
EXTT1=
EXTT2=
EXTT3=
EXTT4=
EXTT5=
EXTT6=
EXTT7=
EXTT8=
EXTT9=
EXTT10=
EXTT11=
EXTT12=
EXTT13=
EXTT14=
EXTT15=
EXTT16=
EXTT17=
PLAYORDER=
